# AST/ASF file generated using VICON BodyLanguage
# -----------------------------------------------
:version 1.10
:name VICON
:units
  mass 1.0
  length 0.45
  angle deg
:documentation
   .ast/.asf automatically generated from VICON data using
   VICON BodyBuilder and BodyLanguage model FoxedUp or BRILLIANT.MOD
:root
   order TX TY TZ RX RY RZ
   axis XYZ
   position 0 0 0  
   orientation 0 0 0 
:bonedata
  begin
     id 1 
     name lhipjoint
     direction 0.660183 -0.676772 0.325788 
     length 2.75133 
     axis 0 0 0  XYZ
  end
  begin
     id 2 
     name lfemur
     direction 0.34202 -0.939693 0  
     length 7.70317  
     axis 0 0 20  XYZ
    dof rx ry rz
    limits (-160.0 20.0)
           (-70.0 70.0)
           (-60.0 70.0)
  end
  begin
     id 3 
     name ltibia
     direction 0.342105 -0.939662 0   
     length 7.18701   
     axis 0 0 20   XYZ
    dof rx
    limits (-10.0 170.0)
  end
  begin
     id 4 
     name lfoot
     direction 0.14163 -0.389126 0.910232   
     length 2.41719   
     axis -90 7.62852e-016 20   XYZ
    dof rx rz
    limits (-45.0 90.0)
           (-70.0 20.0)
  end
  begin
     id 5 
     name ltoes
     direction 1.53533e-011 -4.21926e-011 1   
     length 1.18611   
     axis -90 7.62852e-016 20   XYZ
    dof rx
    limits (-90.0 20.0)
  end
  begin
     id 6 
     name rhipjoint
     direction -0.6658 -0.67229 0.323631   
     length 2.76968  
     axis 0 0 0  XYZ 
  end
  begin
     id 7 
     name rfemur
     direction -0.34202 -0.939693 0   
     length 7.92547   
     axis 0 0 -20   XYZ
    dof rx ry rz
    limits (-160.0 20.0)
           (-70.0 70.0)
           (-70.0 60.0)
  end
  begin
     id 8 
     name rtibia
     direction -0.342022 -0.939692 0   
     length 7.22641   
     axis 0 0 -20   XYZ
    dof rx
    limits (-10.0 170.0)
 end
 begin
     id 9 
     name rfoot
     direction -0.105675 -0.29034 0.951071   
     length 2.48149  
     axis -90 -7.62852e-016 -20   XYZ
    dof rx rz
    limits (-45.0 90.0)
           (-20.0 70.0)
  end
  begin
     id 10 
     name rtoes
     direction -1.5349e-011 -4.21859e-011 1   
     length 1.23343   
     axis -90 -7.62852e-016 -20   XYZ
    dof rx
    limits (-90.0 20.0)
  end
  begin
     id 11 
     name lowerback
     direction 0.0104173 0.993624 -0.112266   
     length 2.00527   
     axis 0 0 0   XYZ
    dof rx ry rz
    limits (-20.0 45.0)
           (-30.0 30.0)
           (-30.0 30.0)
  end
  begin
     id 12 
     name upperback
     direction 0.00733149 0.999856 -0.0152913   
     length 2.01385   
     axis 0 0 0   XYZ
    dof rx ry rz
    limits (-20.0 45.0)
           (-30.0 30.0)
           (-30.0 30.0)
  end
  begin
     id 13 
     name thorax
     direction 0.0026304 0.999318 0.036841   
     length 2.03734   
     axis 0 0 0   XYZ
    dof rx ry rz
    limits (-20.0 45.0)
           (-30.0 30.0)
           (-30.0 30.0)
  end
  begin
     id 14 
     name lowerneck
     direction 0.0293154 0.998757 0.0403082   
     length 1.65303   
     axis 0 0 0   XYZ
    dof rx ry rz
    limits (-20.0 45.0)
           (-30.0 30.0)
           (-30.0 30.0)
  end
  begin
     id 15 
     name upperneck
     direction -0.0376619 0.998184 -0.0470083   
     length 1.60926   
     axis 0 0 0   XYZ
    dof rx ry rz
    limits (-20.0 45.0)
           (-30.0 30.0)
           (-30.0 30.0)
  end
  begin
     id 16
     name head
     direction -0.0170133 0.999635 -0.0209778  
     length 1.73625  
     axis 0 0 0   XYZ
    dof rx ry rz
    limits (-20.0 45.0)
           (-30.0 30.0)
           (-30.0 30.0)
  end
  begin
     id 17 
     name lclavicle
     direction 0.919857 0.39181 -0.0186333  
     length 3.75313  
     axis 0 0 0   XYZ
    dof ry rz
    limits (-20.0 10.0)
           (0.0 20.0)
  end
  begin
     id 18 
     name lhumerus
     direction 1 -4.48988e-011 1.44029e-027   
     length 5.49313   
     axis 180 -30 -90   XYZ
    dof rx ry rz
    limits (-60.0 90.0)
           (-90.0 90.0)
           (-90.0 90.0)
  end
  begin
     id 19
     name lradius
     direction 1 -4.48924e-011 7.46281e-027   
     length 3.29037   
     axis 180 -30 -90   XYZ
    dof rx
    limits (-10.0 170.0)
  end
  begin
     id 20
     name lwrist
     direction 1 -4.48955e-011 2.19879e-026   
     length 1.64519   
     axis -1.34358e-014 90 90   XYZ
    dof ry
    limits (-180.0 0.0)
 end
  begin
     id 21 
     name lhand
     direction 1 -4.48978e-011 4.39747e-026   
     length 0.729656   
     axis -2.80598e-014 90 90   XYZ
    dof rx rz
    limits (-90.0 90.0)
           (-45.0 45.0)
  end
  begin
     id 22 
     name lfingers
     direction 1 -4.49071e-011 8.79411e-026   
     length 0.588268   
     axis -5.61193e-014 90 90   XYZ
    dof rx
    limits (0.0 90.0)
  end
  begin
     id 23
     name lthumb
     direction 0.707107 -6.34817e-011 0.707107   
     length 0.844638   
     axis -90 45 -9.86923e-015   XYZ
    dof rx rz
    limits (-45.0 45.0)
           (-45.0 45.0)
  end
  begin
     id 24 
     name rclavicle
     direction -0.919898 0.388279 0.0550233   
     length 3.7171  
     axis 0 0 0   XYZ 
    dof ry rz
    limits (-10.0 20.0)
           (-20.0 0.0)
  end
  begin
     id 25 
     name rhumerus
     direction -1 -4.48968e-011 9.98372e-028  
     length 5.23684   
     axis 180 30 90   XYZ
    dof rx ry rz
    limits (-90.0 60.0)
           (-90.0 90.0)
           (-90.0 90.0)
  end
  begin
     id 26 
     name rradius
     direction -1 -4.48956e-011 1.01023e-026   
     length 3.38251   
     axis 180 30 90   XYZ
    dof rx
    limits (-10.0 170.0)
  end
  begin
     id 27 
     name rwrist
     direction -1 -4.4892e-011 2.19886e-026   
     length 1.69126   
     axis -1.34358e-014 -90 -90   XYZ
    dof ry
    limits (-180.0 0.0)
  end
  begin
     id 28
     name rhand
     direction -1 -4.49024e-011 4.39727e-026   
     length 0.691454   
     axis -2.80598e-014 -90 -90   XYZ
    dof rx rz
    limits (-90.0 90.0)
           (-45.0 45.0)
  end
  begin
     id 29
     name rfingers
     direction -1 -4.49097e-011 8.79388e-026   
     length 0.557468   
     axis -5.61193e-014 -90 -90   XYZ
    dof rx
    limits (0.0 90.0)
  end
  begin
     id 30
     name rthumb
     direction -0.707107 -6.34938e-011 0.707107   
     length 0.800416   
     axis -90 -45 9.86923e-015   XYZ
    dof rx rz
    limits (-45.0 45.0)
           (-45.0 45.0)
  end
:hierarchy
  begin
    root lhipjoint rhipjoint lowerback
    lhipjoint lfemur
    lfemur ltibia
    ltibia lfoot
    lfoot ltoes
    rhipjoint rfemur
    rfemur rtibia
    rtibia rfoot
    rfoot rtoes
    lowerback upperback
    upperback thorax
    thorax lowerneck lclavicle rclavicle
    lowerneck upperneck
    upperneck head
    lclavicle lhumerus
    lhumerus lradius
    lradius lwrist
    lwrist lhand lthumb
    lhand lfingers
    rclavicle rhumerus
    rhumerus rradius
    rradius rwrist
    rwrist rhand rthumb
    rhand rfingers
  end

#!OML:ASF H:\BabyWalks\Project 1\Capture day 1\Session 1\baby.ASF
:FULLY-SPECIFIED
:DEGREES
16
root -13.1089 17.8794 -1.79305 155.093 -85.617 -157.138
lowerback 15.2188 -1.23807 0.790763
upperback 4.08011 -1.67176 1.02262
thorax -4.19031 -0.919429 0.942918
lowerneck -3.79739 0.824416 4.9963
upperneck -8.269 0.325226 -7.75432
head -1.96637 0.0610445 -3.42035
rclavicle 1.5207e-014 4.42296e-015
rhumerus -18.4168 24.766 -76.9074
rradius 64.1952
rwrist 21.2509
rhand -21.0902 -7.13833
rfingers 7.12502
rthumb 5.28729 -37.0524
lclavicle 1.5207e-014 4.42296e-015
lhumerus -19.9942 -20.5184 75.6333
lradius 65.3589
lwrist -4.61056
lhand -0.986404 -0.963623
lfingers 7.12502
lthumb 24.6452 27.4695
rfemur -4.8945 -2.62954 14.9448
rtibia 20.8586
rfoot -11.8674 -17.7501
rtoes 0.153108
lfemur -2.32491 1.92529 -10.8539
ltibia 16.2166
lfoot -11.8024 5.67792
ltoes -8.05283
17
root -13.0901 17.857 -1.79851 153.742 -86.0001 -155.788
lowerback 15.4144 -1.32179 0.804285
upperback 4.07329 -1.78031 0.95994
thorax -4.30429 -0.972787 0.895526
lowerneck -3.93025 1.1551 5.16109
upperneck -8.42636 0.742854 -7.86479
head -1.96471 0.262303 -3.49175
rclavicle 9.55409e-015 -4.96962e-017
rhumerus -17.1979 25.0256 -76.1846
rradius 65.4047
rwrist 21.2843
rhand -21.5884 -6.92747
rfingers 7.12502
rthumb 4.80617 -36.853
lclavicle 9.55409e-015 -4.96962e-017
lhumerus -18.4927 -20.6247 74.6278
lradius 66.1186
lwrist -4.35374
lhand -1.04347 -1.11462
lfingers 7.12502
lthumb 24.5905 27.326
rfemur -5.38689 -3.39448 14.8054
rtibia 21.9108
rfoot -12.1364 -17.3947
rtoes -0.120103
lfemur -3.179 2.78192 -10.7922
ltibia 17.5404
lfoot -12.4587 4.46556
ltoes -7.93534
18
root -13.0656 17.8286 -1.80874 154.241 -86.0537 -156.246
lowerback 15.5781 -1.26729 0.699257
upperback 4.03712 -1.72352 0.910874
thorax -4.42982 -0.943345 0.898083
lowerneck -4.07202 1.49569 4.98877
upperneck -8.46563 1.21742 -7.56859
head -1.9178 0.497421 -3.35288
rclavicle -7.76503e-016 -7.97623e-015
rhumerus -15.9102 25.2905 -75.4095
rradius 66.5838
rwrist 21.3696
rhand -21.9228 -6.80743
rfingers 7.12502
rthumb 4.48333 -36.74
lclavicle -7.76503e-016 -7.97623e-015
lhumerus -16.9974 -20.7041 73.625
lradius 66.9132
lwrist -4.07118
lhand -0.90151 -1.12033
lfingers 7.12502
lthumb 24.7266 27.3017
rfemur -6.10322 -4.11793 14.7016
rtibia 23.0328
rfoot -12.3091 -16.7113
rtoes -0.295995
lfemur -4.10692 3.85397 -10.6932
ltibia 19.0381
lfoot -13.1521 3.4157
ltoes -7.9241
19
root -13.0448 17.7969 -1.81933 151.494 -86.3606 -153.578
lowerback 15.8369 -1.30243 0.763295
upperback 4.06656 -1.76116 0.885034
thorax -4.54024 -0.963475 0.849046
lowerneck -3.61937 1.57495 5.62612
upperneck -9.22868 1.23603 -8.16025
head -2.25034 0.501843 -3.70448
rclavicle 2.43511e-015 -4.57205e-015
rhumerus -14.5036 25.3417 -74.5176
rradius 67.7635
rwrist 21.4971
rhand -22.1944 -6.65821
rfingers 7.12502
rthumb 4.22106 -36.5961
lclavicle 2.43511e-015 -4.57205e-015
lhumerus -15.3748 -20.8295 72.6361
lradius 67.7659
lwrist -3.84604
lhand -0.546442 -1.07577
lfingers 7.12502
lthumb 25.0669 27.2991
rfemur -6.56281 -4.77894 14.6755
rtibia 24.1318
rfoot -12.6312 -16.3457
rtoes -0.323215
lfemur -5.0461 4.77229 -10.5107
ltibia 20.6832
lfoot -13.913 2.21282
ltoes -7.82959
20
root -13.0278 17.7586 -1.82999 148.513 -86.5962 -150.701
lowerback 15.9986 -1.34087 0.788255
upperback 4.10796 -1.81044 0.859654
thorax -4.5845 -0.989145 0.821877
lowerneck -3.67965 1.78317 5.53913
upperneck -9.32974 1.52612 -7.92655
head -2.25095 0.643842 -3.60588
rclavicle 2.54817e-014 -1.66606e-014
rhumerus -13.0186 25.4944 -73.5903
rradius 68.9377
rwrist 21.4831
rhand -22.1431 -6.80768
rfingers 7.12502
rthumb 4.27056 -36.7446
lclavicle 2.54817e-014 -1.66606e-014
lhumerus -13.7627 -20.8753 71.5941
lradius 68.5797
lwrist -3.73697
lhand -0.579153 -1.07461
lfingers 7.12502
lthumb 25.0355 27.3047
rfemur -7.0262 -5.58453 14.6497
rtibia 25.2954
rfoot -12.9322 -15.8677
rtoes -0.514056
lfemur -5.94899 5.68295 -10.3069
ltibia 22.3616
lfoot -14.6417 1.06669
ltoes -7.90852
21
root -13.014 17.7125 -1.83707 143.522 -86.8071 -145.957
lowerback 16.3836 -1.37149 1.00882
upperback 4.15163 -1.81648 0.836629
thorax -4.75202 -0.995993 0.685048
lowerneck -3.90824 1.89595 5.45707
upperneck -9.28575 1.68488 -7.7366
head -2.18366 0.717512 -3.51824
rclavicle -2.10541e-014 9.23509e-015
rhumerus -11.5302 25.5219 -72.5564
rradius 70.1176
rwrist 21.3919
rhand -22.4389 -6.88357
rfingers 7.12502
rthumb 3.98497 -36.8261
lclavicle -2.10541e-014 9.23509e-015
lhumerus -12.06 -21.099 70.5731
lradius 69.3596
lwrist -3.6619
lhand -0.517342 -1.01256
lfingers 7.12502
lthumb 25.0948 27.3585
rfemur -7.28481 -6.43583 14.6897
rtibia 26.4408
rfoot -13.2511 -15.4563
rtoes -1.58017
lfemur -6.75141 6.46196 -10.0429
ltibia 24.0605
lfoot -15.2972 0.0150707
ltoes -7.94354
22
root -12.9936 17.6712 -1.84882 142.08 -86.7351 -144.57
lowerback 16.5917 -1.17566 1.18447
upperback 4.29046 -1.53746 0.84847
thorax -4.72071 -0.86451 0.545213
lowerneck -4.73185 1.90008 5.18811
upperneck -9.09426 1.67932 -7.47798
head -1.97506 0.69911 -3.35929
rclavicle 6.10952e-015 -3.52222e-015
rhumerus -9.70791 25.1379 -71.1706
rradius 71.2655
rwrist 21.2797
rhand -22.6429 -7.03183
rfingers 7.12502
rthumb 3.7879 -36.9779
lclavicle 6.10952e-015 -3.52222e-015
lhumerus -9.78822 -21.4147 69.534
lradius 70.0243
lwrist -3.68719
lhand -0.759162 -1.1161
lfingers 7.12502
lthumb 24.863 27.2871
rfemur -7.89179 -6.94626 14.7688
rtibia 27.5977
rfoot -13.5999 -14.9979
rtoes -2.39327
lfemur -7.66233 7.4213 -9.76923
ltibia 25.769
lfoot -16.004 -0.93267
ltoes -7.87586
23
root -12.9812 17.6254 -1.85714 136.713 -86.7417 -139.334
lowerback 16.7073 -1.20218 1.36047
upperback 4.32688 -1.54245 0.888602
thorax -4.74691 -0.869729 0.491528
lowerneck -4.68737 2.01423 5.08189
upperneck -9.19214 1.85289 -7.18661
head -2.00495 0.785964 -3.23925
rclavicle -1.87945e-014 2.54693e-016
rhumerus -8.02849 25.1048 -70.0826
rradius 72.3546
rwrist 21.1936
rhand -22.6903 -7.12486
rfingers 7.12502
rthumb 3.74221 -37.0717
lclavicle -1.87945e-014 2.54693e-016
lhumerus -8.0678 -21.3874 68.5052
lradius 70.7143
lwrist -3.95895
lhand -1.07961 -1.1362
lfingers 7.12502
lthumb 24.5559 27.3091
rfemur -8.33681 -7.73942 14.9341
rtibia 28.764
rfoot -14.0518 -14.4581
rtoes -3.09252
lfemur -8.50588 8.15061 -9.37472
ltibia 27.4699
lfoot -16.7698 -1.84624
ltoes -7.66689
24
root -12.9634 17.5743 -1.86739 130.062 -86.7336 -132.827
lowerback 16.9893 -1.22152 1.59207
upperback 4.3419 -1.52344 0.949546
thorax -4.88533 -0.864164 0.428263
lowerneck -4.87428 2.04953 5.0618
upperneck -9.16535 1.90357 -7.03215
head -1.96042 0.805567 -3.17814
rclavicle 1.61699e-014 -3.80176e-015
rhumerus -6.25358 24.9785 -68.8825
rradius 73.3764
rwrist 21.1027
rhand -22.6981 -7.48772
rfingers 7.12502
rthumb 3.73469 -37.4347
lclavicle 1.61699e-014 -3.80176e-015
lhumerus -6.16973 -21.4841 67.4736
lradius 71.2509
lwrist -4.48327
lhand -1.68672 -1.23863
lfingers 7.12502
lthumb 23.9738 27.2845
rfemur -8.83757 -8.51522 15.1488
rtibia 29.9573
rfoot -14.2543 -14.0695
rtoes -4.44638
lfemur -9.32814 8.75101 -8.93865
ltibia 29.1032
lfoot -17.5189 -2.70613
ltoes -7.59797
25
root -12.9492 17.5209 -1.87514 124.066 -86.617 -126.989
lowerback 17.1782 -1.23534 1.81542
upperback 4.39371 -1.50002 1.04325
thorax -4.93336 -0.857008 0.400297
lowerneck -4.89165 2.07935 5.04778
upperneck -9.32049 1.93955 -6.91707
head -2.00696 0.820324 -3.1381
rclavicle 1.21103e-014 1.45361e-015
rhumerus -4.34631 24.7566 -67.6176
rradius 74.3232
rwrist 21.0645
rhand -22.5879 -7.82479
rfingers 7.12502
rthumb 3.84101 -37.7699
lclavicle 1.21103e-014 1.45361e-015
lhumerus -4.25845 -21.3912 66.4742
lradius 71.8179
lwrist -4.93999
lhand -2.61808 -1.24737
lfingers 7.12502
lthumb 23.0805 27.3903
rfemur -9.28306 -9.33683 15.3966
rtibia 31.1682
rfoot -14.7316 -13.5743
rtoes -5.05938
lfemur -10.0814 9.36175 -8.45702
ltibia 30.7264
lfoot -18.3354 -3.50948
ltoes -7.47681
26
root -12.9384 17.4675 -1.88167 119.128 -86.4644 -122.245
lowerback 17.3455 -1.2175 2.0658
upperback 4.48018 -1.43355 1.12283
thorax -4.9331 -0.829509 0.331761
lowerneck -4.92412 2.08316 5.05507
upperneck -9.4938 1.93513 -6.8382
head -2.05935 0.813978 -3.11502
rclavicle 6.25551e-015 7.0817e-015
rhumerus -2.34834 24.4526 -66.2741
rradius 75.1669
rwrist 20.9719
rhand -22.5179 -8.29992
rfingers 7.12502
rthumb 3.90864 -38.2438
lclavicle 6.25551e-015 7.0817e-015
lhumerus -2.25281 -21.2257 65.4961
lradius 72.3722
lwrist -5.13001
lhand -2.44842 -1.33441
lfingers 7.12502
lthumb 23.2432 27.2828
rfemur -9.67389 -10.0472 15.614
rtibia 32.3654
rfoot -15.2492 -13.1361
rtoes -5.49889
lfemur -10.7299 9.93741 -7.99323
ltibia 32.2941
lfoot -19.1782 -4.25481
ltoes -7.3423
